HIERARCHY
ROOT joint_Root
{
	OFFSET 0.0 0.0 0.0
	CHANNELS 6 Xposition Yposition Zposition Zrotation Xrotation Yrotation 
	JOINT Hips
	{
		OFFSET -17.1583 93.1646 452.98
		CHANNELS 6 Xposition Yposition Zposition Zrotation Xrotation Yrotation 
		JOINT Spine
		{
			OFFSET 15.7357 0.0 0.0
			CHANNELS 6 Xposition Yposition Zposition Zrotation Xrotation Yrotation 
			JOINT Chest
			{
				OFFSET 8.98455 -0.406207 0.0
				CHANNELS 6 Xposition Yposition Zposition Zrotation Xrotation Yrotation 
				JOINT Neck
				{
					OFFSET 16.3773 0.0 0.0
					CHANNELS 6 Xposition Yposition Zposition Zrotation Xrotation Yrotation 
					JOINT Head
					{
						OFFSET 6.45672 0.0 0.0
						CHANNELS 6 Xposition Yposition Zposition Zrotation Xrotation Yrotation 
						End Site
						{
							OFFSET 0.0 0.0 0.0
						}
					}
				}
				JOINT Shoulder_L
				{
					OFFSET 12.9942 -0.242716 4.98039
					CHANNELS 6 Xposition Yposition Zposition Zrotation Xrotation Yrotation 
					JOINT UpperArm_L
					{
						OFFSET 5.34809 0.0 0.0
						CHANNELS 6 Xposition Yposition Zposition Zrotation Xrotation Yrotation 
						JOINT LowerArm_L
						{
							OFFSET 24.3286 1.87007e-05 0.0
							CHANNELS 6 Xposition Yposition Zposition Zrotation Xrotation Yrotation 
							JOINT Hand_L
							{
								OFFSET 22.2916 0.0 0.0
								CHANNELS 6 Xposition Yposition Zposition Zrotation Xrotation Yrotation 
								End Site
								{
									OFFSET 0.0 0.0 0.0
								}
							}
						}
					}
				}
				JOINT Shoulder_R
				{
					OFFSET 12.9945 -0.242716 -4.98039
					CHANNELS 6 Xposition Yposition Zposition Zrotation Xrotation Yrotation 
					JOINT UpperArm_R
					{
						OFFSET -5.34813 0.0 0.0
						CHANNELS 6 Xposition Yposition Zposition Zrotation Xrotation Yrotation 
						JOINT LowerArm_R
						{
							OFFSET -24.3289 0.000322201 0.0
							CHANNELS 6 Xposition Yposition Zposition Zrotation Xrotation Yrotation 
							JOINT Hand_R
							{
								OFFSET -22.2915 -0.000108084 0.0
								CHANNELS 6 Xposition Yposition Zposition Zrotation Xrotation Yrotation 
								End Site
								{
									OFFSET 0.0 0.0 0.0
								}
							}
						}
					}
				}
			}
		}
		JOINT UpperLeg_L
		{
			OFFSET -2.19248 -6.46944 0.0
			CHANNELS 6 Xposition Yposition Zposition Zrotation Xrotation Yrotation 
			JOINT LowerLeg_L
			{
				OFFSET 39.0811 0.0 -1.23785e-05
				CHANNELS 6 Xposition Yposition Zposition Zrotation Xrotation Yrotation 
				JOINT Foot_L
				{
					OFFSET 40.9854 0.0 -1.26872e-05
					CHANNELS 6 Xposition Yposition Zposition Zrotation Xrotation Yrotation 
					JOINT Toes_L
					{
						OFFSET 11.7543 0.0 0.0
						CHANNELS 6 Xposition Yposition Zposition Zrotation Xrotation Yrotation 
						End Site
						{
							OFFSET 0.0 0.0 0.0
						}
					}
				}
			}
		}
		JOINT UpperLeg_R
		{
			OFFSET -2.19251 6.46944 0.0
			CHANNELS 6 Xposition Yposition Zposition Zrotation Xrotation Yrotation 
			JOINT LowerLeg_R
			{
				OFFSET -39.0811 -0.00228153 -0.0401928
				CHANNELS 6 Xposition Yposition Zposition Zrotation Xrotation Yrotation 
				JOINT Foot_R
				{
					OFFSET -40.9854 0.0 0.0
					CHANNELS 6 Xposition Yposition Zposition Zrotation Xrotation Yrotation 
					JOINT Toes_R
					{
						OFFSET -11.7543 0.0 0.0
						CHANNELS 6 Xposition Yposition Zposition Zrotation Xrotation Yrotation 
						End Site
						{
							OFFSET 0.0 0.0 0.0
						}
					}
				}
			}
		}
	}
}
MOTION
Frames:	7
Frame Time:	0.0333333
0.000000 0.000000 0.000000 0.000000 0.000000 -0.000000 -1.084550 93.351100 0.495076 88.011400 0.750342 -2.483260 15.735700 0.000005 -0.000001 87.636300 87.108900 -86.028800 8.984550 -0.406207 -0.000000 -1.981380 -0.375096 3.207800 16.377300 -0.000001 -0.000001 -2.052600 2.876900 -2.225030 6.456720 -0.000001 -0.000000 -4.776310 2.398210 -3.075010 12.994200 -0.242716 4.980390 -92.874100 9.241070 -72.639400 5.348090 -0.000007 -0.000001 -70.670000 19.783800 -5.334450 24.328600 0.000019 0.000005 7.434540 25.194300 -17.044500 22.291600 -0.000001 0.000005 -8.262600 5.189960 2.941580 12.994500 -0.242716 -4.980390 88.519100 5.686810 -75.377600 -5.348130 -0.000001 -0.000004 -69.139700 29.959900 -6.838270 -24.328900 0.000322 -0.000009 0.426213 2.217030 -10.918700 -22.291500 -0.000108 -0.000004 -4.551480 5.252640 1.359140 -2.192480 -6.469440 -0.000000 -173.234000 -6.327410 -2.732100 39.081100 -0.000007 -0.000012 0.018122 -0.081821 12.488800 40.985400 -0.000006 -0.000013 -1.663030 13.199000 -68.255300 11.754300 -0.000000 0.000003 -0.001803 0.193855 -8.712130 -2.192510 6.469440 -0.000001 178.161000 8.373620 179.455000 -39.081100 -0.002282 -0.040193 0.007708 -0.028292 8.775440 -40.985400 0.000008 0.000006 -6.956690 5.693330 -65.647500 -11.754300 -0.000006 -0.000006 -0.011000 0.278634 -5.251130
0.000000 0.000000 0.000000 0.000000 0.000000 -0.000000 -1.067110 93.425800 0.347405 88.005300 0.937983 -3.304530 15.735700 0.000005 -0.000001 88.133600 87.278900 -86.502600 8.984550 -0.406207 -0.000000 -2.320060 -0.320687 3.255310 16.377300 -0.000001 -0.000001 -3.494500 2.750560 -2.099950 6.456720 -0.000001 -0.000000 -6.045040 2.516660 -3.641010 12.994200 -0.242716 4.980390 -92.974100 9.716120 -72.889200 5.348090 -0.000007 -0.000001 -67.625200 16.748300 -8.516530 24.328600 0.000019 0.000005 6.695890 30.154300 -13.160100 22.291600 -0.000001 0.000005 -14.017300 5.308360 -0.245148 12.994500 -0.242716 -4.980390 88.492000 5.800040 -75.399300 -5.348130 -0.000001 -0.000004 -67.027100 28.691100 -9.162420 -24.328900 0.000322 -0.000009 0.734337 5.169720 -8.123070 -22.291500 -0.000108 -0.000004 -8.594120 5.270050 0.892046 -2.192480 -6.469440 -0.000000 -173.306000 -6.622990 -3.373650 39.081100 -0.000007 -0.000012 0.015398 -0.073421 11.844700 40.985400 -0.000006 -0.000013 -1.771680 13.587200 -67.948100 11.754300 -0.000000 0.000003 -0.002079 0.197326 -8.571000 -2.192510 6.469440 -0.000001 178.234000 8.839290 179.044000 -39.081100 -0.002282 -0.040193 0.006714 -0.024847 7.726850 -40.985400 0.000008 0.000006 -7.464290 5.921550 -64.918700 -11.754300 -0.000006 -0.000006 -0.010997 0.278609 -5.252160
0.000000 0.000000 0.000000 0.000000 0.000000 -0.000000 -1.022980 93.477900 0.285037 87.957700 1.037960 -4.002080 15.735700 0.000005 -0.000001 87.119600 87.513800 -85.438400 8.984550 -0.406207 -0.000000 -2.791750 -0.404588 3.352600 16.377300 -0.000001 -0.000001 -4.773800 2.744270 -1.842090 6.456720 -0.000001 -0.000000 -7.091940 2.952560 -4.248500 12.994200 -0.242716 4.980390 -92.849800 9.471360 -73.168800 5.348090 -0.000007 -0.000001 -63.932300 12.267200 -12.131300 24.328600 0.000019 0.000005 5.047000 35.823300 -8.583990 22.291600 -0.000001 0.000005 -21.602400 5.410030 -3.329490 12.994500 -0.242716 -4.980390 88.669800 5.073060 -75.285900 -5.348130 -0.000001 -0.000004 -64.012900 26.143800 -12.413300 -24.328900 0.000322 -0.000009 1.055400 10.667900 -5.695800 -22.291500 -0.000108 -0.000004 -15.428300 5.258990 1.209590 -2.192480 -6.469440 -0.000000 -173.297000 -6.573400 -4.027920 39.081100 -0.000007 -0.000012 0.005200 -0.025427 11.560200 40.985400 -0.000006 -0.000013 -2.400770 13.669100 -67.513200 11.754300 -0.000000 0.000003 -0.001746 0.193115 -8.742240 -2.192510 6.469440 -0.000001 178.310000 8.964520 178.828000 -39.081100 -0.002282 -0.040193 0.006442 -0.026597 6.642890 -40.985400 0.000008 0.000006 -8.104210 5.943610 -64.173500 -11.754300 -0.000006 -0.000006 -0.010664 0.276199 -5.350770
0.000000 0.000000 0.000000 0.000000 0.000000 -0.000000 -0.954679 93.513500 0.324171 87.987400 1.024040 -4.282590 15.735700 0.000005 -0.000001 85.367500 87.745900 -83.710800 8.984550 -0.406207 -0.000000 -3.262920 -0.523301 3.299240 16.377300 -0.000001 -0.000001 -5.706750 2.860560 -1.647200 6.456720 -0.000001 -0.000000 -7.758640 3.426350 -4.329050 12.994200 -0.242716 4.980390 -92.492000 8.344870 -73.307200 5.348090 -0.000007 -0.000001 -59.702200 5.583640 -15.734100 24.328600 0.000019 0.000005 2.716360 39.983900 -4.224040 22.291600 -0.000001 0.000005 -27.899100 5.428240 -3.861670 12.994500 -0.242716 -4.980390 88.945100 3.956100 -75.055800 -5.348130 -0.000001 -0.000004 -59.754300 22.008700 -16.107000 -24.328900 0.000322 -0.000009 0.818613 13.132300 -3.603700 -22.291500 -0.000108 -0.000004 -21.571200 5.208940 2.512010 -2.192480 -6.469440 -0.000000 -173.361000 -6.498470 -4.121750 39.081100 -0.000007 -0.000012 -0.000366 0.001845 11.200800 40.985400 -0.000006 -0.000013 -2.862540 13.581100 -67.211700 11.754300 -0.000000 0.000003 -0.002091 0.197476 -8.564910 -2.192510 6.469440 -0.000001 178.211000 8.870980 179.059000 -39.081100 -0.002282 -0.040193 0.006651 -0.033346 5.660900 -40.985400 0.000008 0.000006 -8.668580 5.904240 -63.599800 -11.754300 -0.000006 -0.000006 -0.011047 0.278969 -5.237410
0.000000 0.000000 0.000000 0.000000 0.000000 -0.000000 -0.860908 93.512000 0.516320 88.046400 0.896834 -4.318050 15.735700 0.000005 -0.000001 82.049400 88.015300 -80.414700 8.984550 -0.406207 -0.000000 -3.822630 -0.713928 3.246780 16.377300 -0.000001 -0.000001 -6.135390 2.916350 -1.390170 6.456720 -0.000001 -0.000000 -8.310240 4.062340 -4.607140 12.994200 -0.242716 4.980390 -92.132900 7.027180 -73.068300 5.348090 -0.000007 -0.000001 -54.286300 -1.963490 -18.804200 24.328600 0.000019 0.000005 1.533720 41.872500 -2.297240 22.291600 -0.000001 0.000005 -29.307400 5.382010 -2.366550 12.994500 -0.242716 -4.980390 89.312500 2.490430 -74.560000 -5.348130 -0.000001 -0.000004 -54.771100 15.506500 -20.375700 -24.328900 0.000322 -0.000009 0.228381 12.413600 -1.065590 -22.291500 -0.000108 -0.000004 -22.134200 5.170970 3.436030 -2.192480 -6.469440 -0.000000 -173.447000 -6.743370 -3.912530 39.081100 -0.000007 -0.000012 -0.002390 0.012310 10.983900 40.985400 -0.000006 -0.000013 -3.090830 13.734600 -67.006200 11.754300 -0.000000 0.000003 -0.002327 0.200370 -8.447160 -2.192510 6.469440 -0.000001 178.011000 9.145800 179.416000 -39.081100 -0.002282 -0.040193 0.007143 -0.042309 5.126560 -40.985400 0.000008 0.000006 -9.089110 6.306980 -63.221100 -11.754300 -0.000006 -0.000006 -0.010886 0.277812 -5.284750
0.000000 0.000000 0.000000 0.000000 0.000000 -0.000000 -0.756559 93.481100 0.900153 88.097400 0.769515 -4.064880 15.735700 0.000005 -0.000001 79.058900 88.349400 -77.484900 8.984550 -0.406207 -0.000000 -4.512140 -0.794593 3.118880 16.377300 -0.000001 -0.000001 -6.188550 2.909170 -1.192040 6.456720 -0.000001 -0.000000 -8.431720 4.382150 -4.711380 12.994200 -0.242716 4.980390 -91.792700 5.720970 -72.567900 5.348090 -0.000007 -0.000001 -47.038400 -7.903080 -21.551200 24.328600 0.000019 0.000005 1.791190 40.447200 -2.759940 22.291600 -0.000001 0.000005 -25.044800 5.348660 -1.347820 12.994500 -0.242716 -4.980390 89.632800 1.279440 -73.983900 -5.348130 -0.000001 -0.000004 -48.871000 7.630950 -24.015900 -24.328900 0.000322 -0.000009 0.028897 11.527700 -0.149477 -22.291500 -0.000108 -0.000004 -18.490400 5.203440 2.654830 -2.192480 -6.469440 -0.000000 -173.490000 -7.325270 -3.284160 39.081100 -0.000007 -0.000012 -0.001066 0.005573 10.820900 40.985400 -0.000006 -0.000013 -3.009590 14.215500 -67.070900 11.754300 -0.000000 0.000003 -0.002702 0.204818 -8.266220 -2.192510 6.469440 -0.000001 177.754000 9.457590 179.754000 -39.081100 -0.002282 -0.040193 0.007158 -0.039845 5.464280 -40.985400 0.000008 0.000006 -9.387190 6.818330 -63.400200 -11.754300 -0.000006 -0.000006 -0.011218 0.280194 -5.187250
0.000000 0.000000 0.000000 0.000000 0.000000 -0.000000 -0.627391 93.374300 1.522620 88.124700 0.637502 -3.561260 15.735700 0.000005 -0.000001 77.794800 88.780000 -76.242700 8.984550 -0.406207 -0.000000 -5.370110 -0.693037 3.074810 16.377300 -0.000001 -0.000001 -5.723130 2.896120 -1.196610 6.456720 -0.000001 -0.000000 -8.337600 4.338120 -5.143530 12.994200 -0.242716 4.980390 -91.449700 4.442760 -71.906800 5.348090 -0.000007 -0.000001 -39.457900 -13.932300 -24.404600 24.328600 0.000019 0.000005 2.015450 35.761700 -3.447250 22.291600 -0.000001 0.000005 -16.886300 5.319690 -0.529802 12.994500 -0.242716 -4.980390 89.969300 0.103188 -73.352400 -5.348130 -0.000001 -0.000004 -42.177300 -0.461053 -27.232500 -24.328900 0.000322 -0.000009 0.005281 9.287760 -0.038669 -22.291500 -0.000108 -0.000004 -12.716600 5.263980 1.092370 -2.192480 -6.469440 -0.000000 -173.531000 -7.533770 -2.461390 39.081100 -0.000007 -0.000012 0.006968 -0.035311 11.164200 40.985400 -0.000006 -0.000013 -2.295870 14.305300 -67.782100 11.754300 -0.000000 0.000003 -0.002938 0.207535 -8.155680 -2.192510 6.469440 -0.000001 177.466000 9.469930 -179.617000 -39.081100 -0.002282 -0.040193 0.005999 -0.024849 6.095900 -40.985400 0.000008 0.000006 -9.481630 7.072130 -63.985100 -11.754300 -0.000006 -0.000006 -0.011470 0.281978 -5.114230
